<?xml version="1.0" encoding="UTF-8" standalone="no"?>
<svg
   xmlns:dc="http://purl.org/dc/elements/1.1/"
   xmlns:cc="http://creativecommons.org/ns#"
   xmlns:rdf="http://www.w3.org/1999/02/22-rdf-syntax-ns#"
   xmlns:svg="http://www.w3.org/2000/svg"
   xmlns="http://www.w3.org/2000/svg"
   xmlns:sodipodi="http://sodipodi.sourceforge.net/DTD/sodipodi-0.dtd"
   xmlns:inkscape="http://www.inkscape.org/namespaces/inkscape"
   enable-background="new 0 0 841.891 841.891"
   height="841.89099"
   id="Layer_1"
   version="1.1"
   viewBox="0 0 841.891 841.891"
   width="841.89099"
   xml:space="preserve"
   inkscape:version="0.91 r13725"
   sodipodi:docname="sm_logo_linkedin.svg"><metadata
     id="metadata3351"><rdf:RDF><cc:Work
         rdf:about=""><dc:format>image/svg+xml</dc:format><dc:type
           rdf:resource="http://purl.org/dc/dcmitype/StillImage" /></cc:Work></rdf:RDF></metadata><defs
     id="defs3349" /><sodipodi:namedview
     pagecolor="#ffffff"
     bordercolor="#666666"
     borderopacity="1"
     objecttolerance="10"
     gridtolerance="10"
     guidetolerance="10"
     inkscape:pageopacity="0"
     inkscape:pageshadow="2"
     inkscape:window-width="1455"
     inkscape:window-height="966"
     id="namedview3347"
     showgrid="false"
     inkscape:zoom="0.67111389"
     inkscape:cx="303.23075"
     inkscape:cy="371.2842"
     inkscape:window-x="0"
     inkscape:window-y="0"
     inkscape:window-maximized="0"
     inkscape:current-layer="Layer_1" /><g
     id="g3337"
     transform="matrix(1.4027419,0,0,1.4027419,-169.58237,4.0777292)"><path
       d="m 717.778,297.644 c 0,163.936 -132.903,296.829 -296.838,296.829 -163.934,0 -296.828,-132.894 -296.828,-296.829 0,-163.938 132.894,-296.837 296.828,-296.837 163.935,0 296.838,132.898 296.838,296.837 z"
       stroke-miterlimit="10"
       id="path3339"
       inkscape:connector-curvature="0"
       style="fill:#ffffff;stroke:#c6c6c6;stroke-width:2;stroke-miterlimit:10" /><g
       id="g3341"><path
         d="m 315.032,244.135 49.33,0 0,158.579 -49.33,0 0,-158.579 z m 24.678,-78.826 c 15.769,0 28.565,12.805 28.565,28.583 0,15.773 -12.796,28.573 -28.565,28.573 -15.831,0 -28.591,-12.8 -28.591,-28.573 -0.001,-15.778 12.76,-28.583 28.591,-28.583"
         id="path3343"
         inkscape:connector-curvature="0"
         style="fill:#c6c6c6" /><path
         d="m 395.278,244.135 47.245,0 0,21.679 0.674,0 c 6.576,-12.463 22.664,-25.605 46.641,-25.605 49.897,0 59.118,32.828 59.118,75.538 l 0,86.968 -49.269,0 0,-77.117 c 0,-18.391 -0.328,-42.053 -25.627,-42.053 -25.637,0 -29.551,20.05 -29.551,40.736 l 0,78.435 -49.231,0 0,-158.581 z"
         id="path3345"
         inkscape:connector-curvature="0"
         style="fill:#c6c6c6" /></g></g></svg>